<svg width="163" height="45" viewBox="0 0 163 45" fill="none" xmlns="http://www.w3.org/2000/svg">
<path d="M3.264 8.844C2.576 8.844 1.948 8.756 1.38 8.58C0.811996 8.396 0.351996 8.14 -4.14811e-06 7.812L0.335996 7.14C0.663996 7.436 1.08 7.668 1.584 7.836C2.088 8.004 2.652 8.088 3.276 8.088C4.14 8.088 4.78 7.936 5.196 7.632C5.612 7.32 5.82 6.904 5.82 6.384C5.82 6.024 5.724 5.724 5.532 5.484C5.348 5.244 5.088 5.068 4.752 4.956C4.424 4.836 4.036 4.776 3.588 4.776H1.68V4.056H3.552C4.152 4.056 4.62 3.936 4.956 3.696C5.292 3.456 5.46 3.104 5.46 2.64C5.46 2.28 5.356 1.984 5.148 1.752C4.948 1.52 4.68 1.352 4.344 1.248C4.016 1.136 3.656 1.08 3.264 1.08C2.968 1.08 2.664 1.108 2.352 1.164C2.048 1.22 1.752 1.3 1.464 1.404C1.184 1.508 0.923996 1.632 0.683996 1.776L0.407996 1.068C0.823996 0.820003 1.28 0.632003 1.776 0.504003C2.272 0.376003 2.768 0.312003 3.264 0.312003C3.672 0.312003 4.06 0.356003 4.428 0.444003C4.796 0.532003 5.124 0.668003 5.412 0.852003C5.7 1.036 5.928 1.268 6.096 1.548C6.264 1.828 6.348 2.156 6.348 2.532C6.348 2.924 6.256 3.272 6.072 3.576C5.896 3.88 5.64 4.12 5.304 4.296C4.968 4.472 4.572 4.56 4.116 4.56L4.176 4.284C4.64 4.284 5.064 4.368 5.448 4.536C5.832 4.704 6.136 4.948 6.36 5.268C6.592 5.588 6.708 5.98 6.708 6.444C6.708 6.908 6.576 7.324 6.312 7.692C6.048 8.052 5.66 8.336 5.148 8.544C4.644 8.744 4.016 8.844 3.264 8.844ZM12.0491 8.772V7.38L12.0131 7.152V4.824C12.0131 4.288 11.8611 3.876 11.5571 3.588C11.2611 3.3 10.8171 3.156 10.2251 3.156C9.81712 3.156 9.42912 3.224 9.06112 3.36C8.69312 3.496 8.38112 3.676 8.12512 3.9L7.74112 3.264C8.06112 2.992 8.44512 2.784 8.89312 2.64C9.34112 2.488 9.81312 2.412 10.3091 2.412C11.1251 2.412 11.7531 2.616 12.1931 3.024C12.6411 3.424 12.8651 4.036 12.8651 4.86V8.772H12.0491ZM9.87712 8.832C9.40512 8.832 8.99312 8.756 8.64112 8.604C8.29712 8.444 8.03312 8.228 7.84912 7.956C7.66512 7.676 7.57312 7.356 7.57312 6.996C7.57312 6.668 7.64912 6.372 7.80112 6.108C7.96112 5.836 8.21712 5.62 8.56912 5.46C8.92912 5.292 9.40912 5.208 10.0091 5.208H12.1811V5.844H10.0331C9.42512 5.844 9.00112 5.952 8.76112 6.168C8.52912 6.384 8.41312 6.652 8.41312 6.972C8.41312 7.332 8.55312 7.62 8.83312 7.836C9.11312 8.052 9.50512 8.16 10.0091 8.16C10.4891 8.16 10.9011 8.052 11.2451 7.836C11.5971 7.612 11.8531 7.292 12.0131 6.876L12.2051 7.464C12.0451 7.88 11.7651 8.212 11.3651 8.46C10.9731 8.708 10.4771 8.832 9.87712 8.832ZM14.6532 8.772V2.472H20.3172V8.772H19.4652V2.988L19.6812 3.216H15.2892L15.5052 2.988V8.772H14.6532ZM22.3672 11.16C22.0712 11.16 21.7872 11.112 21.5152 11.016C21.2512 10.92 21.0232 10.776 20.8312 10.584L21.2272 9.948C21.3872 10.1 21.5592 10.216 21.7432 10.296C21.9352 10.384 22.1472 10.428 22.3792 10.428C22.6592 10.428 22.8992 10.348 23.0992 10.188C23.3072 10.036 23.5032 9.764 23.6872 9.372L24.0952 8.448L24.1912 8.316L26.7832 2.472H27.6232L24.4672 9.528C24.2912 9.936 24.0952 10.26 23.8792 10.5C23.6712 10.74 23.4432 10.908 23.1952 11.004C22.9472 11.108 22.6712 11.16 22.3672 11.16ZM24.0472 8.952L21.1432 2.472H22.0312L24.5992 8.256L24.0472 8.952ZM30.9348 8.832C30.3108 8.832 29.7508 8.696 29.2548 8.424C28.7668 8.144 28.3828 7.764 28.1028 7.284C27.8228 6.796 27.6828 6.24 27.6828 5.616C27.6828 4.984 27.8228 4.428 28.1028 3.948C28.3828 3.468 28.7668 3.092 29.2548 2.82C29.7508 2.548 30.3108 2.412 30.9348 2.412C31.4708 2.412 31.9548 2.516 32.3868 2.724C32.8188 2.932 33.1588 3.244 33.4068 3.66L32.7708 4.092C32.5548 3.772 32.2868 3.536 31.9668 3.384C31.6468 3.232 31.2988 3.156 30.9228 3.156C30.4748 3.156 30.0708 3.26 29.7108 3.468C29.3508 3.668 29.0668 3.952 28.8588 4.32C28.6508 4.688 28.5468 5.12 28.5468 5.616C28.5468 6.112 28.6508 6.544 28.8588 6.912C29.0668 7.28 29.3508 7.568 29.7108 7.776C30.0708 7.976 30.4748 8.076 30.9228 8.076C31.2988 8.076 31.6468 8 31.9668 7.848C32.2868 7.696 32.5548 7.464 32.7708 7.152L33.4068 7.584C33.1588 7.992 32.8188 8.304 32.3868 8.52C31.9548 8.728 31.4708 8.832 30.9348 8.832ZM39.1965 8.772L36.6045 5.652L37.3125 5.232L40.2045 8.772H39.1965ZM34.5765 8.772V2.472H35.4285V8.772H34.5765ZM35.1645 5.964V5.232H37.1925V5.964H35.1645ZM37.3845 5.712L36.5925 5.592L39.1005 2.472H40.0245L37.3845 5.712ZM44.864 8.772V7.38L44.828 7.152V4.824C44.828 4.288 44.676 3.876 44.372 3.588C44.076 3.3 43.632 3.156 43.04 3.156C42.632 3.156 42.244 3.224 41.876 3.36C41.508 3.496 41.196 3.676 40.94 3.9L40.556 3.264C40.876 2.992 41.26 2.784 41.708 2.64C42.156 2.488 42.628 2.412 43.124 2.412C43.94 2.412 44.568 2.616 45.008 3.024C45.456 3.424 45.68 4.036 45.68 4.86V8.772H44.864ZM42.692 8.832C42.22 8.832 41.808 8.756 41.456 8.604C41.112 8.444 40.848 8.228 40.664 7.956C40.48 7.676 40.388 7.356 40.388 6.996C40.388 6.668 40.464 6.372 40.616 6.108C40.776 5.836 41.032 5.62 41.384 5.46C41.744 5.292 42.224 5.208 42.824 5.208H44.996V5.844H42.848C42.24 5.844 41.816 5.952 41.576 6.168C41.344 6.384 41.228 6.652 41.228 6.972C41.228 7.332 41.368 7.62 41.648 7.836C41.928 8.052 42.32 8.16 42.824 8.16C43.304 8.16 43.716 8.052 44.06 7.836C44.412 7.612 44.668 7.292 44.828 6.876L45.02 7.464C44.86 7.88 44.58 8.212 44.18 8.46C43.788 8.708 43.292 8.832 42.692 8.832ZM50.1681 8.832C49.5121 8.832 48.9361 8.696 48.4401 8.424C47.9441 8.144 47.5561 7.764 47.2761 7.284C46.9961 6.796 46.8561 6.24 46.8561 5.616C46.8561 4.992 46.9881 4.44 47.2521 3.96C47.5241 3.48 47.8921 3.104 48.3561 2.832C48.8281 2.552 49.3561 2.412 49.9401 2.412C50.5321 2.412 51.0561 2.548 51.5121 2.82C51.9761 3.084 52.3401 3.46 52.6041 3.948C52.8681 4.428 53.0001 4.984 53.0001 5.616C53.0001 5.656 52.9961 5.7 52.9881 5.748C52.9881 5.788 52.9881 5.832 52.9881 5.88H47.5041V5.244H52.5321L52.1961 5.496C52.1961 5.04 52.0961 4.636 51.8961 4.284C51.7041 3.924 51.4401 3.644 51.1041 3.444C50.7681 3.244 50.3801 3.144 49.9401 3.144C49.5081 3.144 49.1201 3.244 48.7761 3.444C48.4321 3.644 48.1641 3.924 47.9721 4.284C47.7801 4.644 47.6841 5.056 47.6841 5.52V5.652C47.6841 6.132 47.7881 6.556 47.9961 6.924C48.2121 7.284 48.5081 7.568 48.8841 7.776C49.2681 7.976 49.7041 8.076 50.1921 8.076C50.5761 8.076 50.9321 8.008 51.2601 7.872C51.5961 7.736 51.8841 7.528 52.1241 7.248L52.6041 7.8C52.3241 8.136 51.9721 8.392 51.5481 8.568C51.1321 8.744 50.6721 8.832 50.1681 8.832ZM54.406 8.772V2.472H55.27L58.126 7.308H57.766L60.67 2.472H61.462V8.772H60.682V3.444L60.838 3.516L58.126 8.004H57.742L55.006 3.468L55.186 3.432V8.772H54.406ZM68.7071 8.832C68.0831 8.832 67.5231 8.696 67.0271 8.424C66.5391 8.144 66.1551 7.764 65.8751 7.284C65.5951 6.796 65.4551 6.24 65.4551 5.616C65.4551 4.984 65.5951 4.428 65.8751 3.948C66.1551 3.468 66.5391 3.092 67.0271 2.82C67.5231 2.548 68.0831 2.412 68.7071 2.412C69.2431 2.412 69.7271 2.516 70.1591 2.724C70.5911 2.932 70.9311 3.244 71.1791 3.66L70.5431 4.092C70.3271 3.772 70.0591 3.536 69.7391 3.384C69.4191 3.232 69.0711 3.156 68.6951 3.156C68.2471 3.156 67.8431 3.26 67.4831 3.468C67.1231 3.668 66.8391 3.952 66.6311 4.32C66.4231 4.688 66.3191 5.12 66.3191 5.616C66.3191 6.112 66.4231 6.544 66.6311 6.912C66.8391 7.28 67.1231 7.568 67.4831 7.776C67.8431 7.976 68.2471 8.076 68.6951 8.076C69.0711 8.076 69.4191 8 69.7391 7.848C70.0591 7.696 70.3271 7.464 70.5431 7.152L71.1791 7.584C70.9311 7.992 70.5911 8.304 70.1591 8.52C69.7271 8.728 69.2431 8.832 68.7071 8.832ZM76.2608 8.772V7.38L76.2248 7.152V4.824C76.2248 4.288 76.0728 3.876 75.7688 3.588C75.4728 3.3 75.0288 3.156 74.4368 3.156C74.0288 3.156 73.6408 3.224 73.2728 3.36C72.9048 3.496 72.5928 3.676 72.3368 3.9L71.9528 3.264C72.2728 2.992 72.6568 2.784 73.1048 2.64C73.5528 2.488 74.0248 2.412 74.5208 2.412C75.3368 2.412 75.9648 2.616 76.4048 3.024C76.8528 3.424 77.0768 4.036 77.0768 4.86V8.772H76.2608ZM74.0888 8.832C73.6168 8.832 73.2048 8.756 72.8528 8.604C72.5088 8.444 72.2448 8.228 72.0608 7.956C71.8768 7.676 71.7848 7.356 71.7848 6.996C71.7848 6.668 71.8608 6.372 72.0128 6.108C72.1728 5.836 72.4288 5.62 72.7808 5.46C73.1408 5.292 73.6208 5.208 74.2208 5.208H76.3928V5.844H74.2448C73.6368 5.844 73.2128 5.952 72.9728 6.168C72.7408 6.384 72.6248 6.652 72.6248 6.972C72.6248 7.332 72.7648 7.62 73.0448 7.836C73.3248 8.052 73.7168 8.16 74.2208 8.16C74.7008 8.16 75.1128 8.052 75.4568 7.836C75.8088 7.612 76.0648 7.292 76.2248 6.876L76.4168 7.464C76.2568 7.88 75.9768 8.212 75.5768 8.46C75.1848 8.708 74.6888 8.832 74.0888 8.832ZM78.8649 8.772V2.472H79.7169V7.476L83.9289 2.472H84.6849V8.772H83.8329V3.756L79.6329 8.772H78.8649ZM81.7209 1.56C81.1929 1.56 80.7649 1.428 80.4369 1.164C80.1169 0.892003 79.9489 0.504003 79.9329 3.09944e-06H80.5449C80.5529 0.320003 80.6649 0.572003 80.8809 0.756003C81.0969 0.940003 81.3769 1.032 81.7209 1.032C82.0649 1.032 82.3449 0.940003 82.5609 0.756003C82.7849 0.572003 82.9009 0.320003 82.9089 3.09944e-06H83.5209C83.5129 0.504003 83.3449 0.892003 83.0169 1.164C82.6889 1.428 82.2569 1.56 81.7209 1.56ZM87.8467 8.772V2.988L88.0627 3.216H85.4587V2.472H91.0867V3.216H88.4827L88.6987 2.988V8.772H87.8467ZM90.7595 10.524L91.2875 8.304L91.3835 8.82C91.1995 8.82 91.0435 8.76 90.9155 8.64C90.7955 8.52 90.7355 8.364 90.7355 8.172C90.7355 7.98 90.7955 7.824 90.9155 7.704C91.0435 7.584 91.1955 7.524 91.3715 7.524C91.5555 7.524 91.7035 7.588 91.8155 7.716C91.9355 7.844 91.9955 7.996 91.9955 8.172C91.9955 8.236 91.9915 8.3 91.9835 8.364C91.9755 8.428 91.9595 8.5 91.9355 8.58C91.9115 8.66 91.8795 8.756 91.8395 8.868L91.3355 10.524H90.7595ZM100.643 8.772L98.0511 5.652L98.7591 5.232L101.651 8.772H100.643ZM96.0231 8.772V2.472H96.8751V8.772H96.0231ZM96.6111 5.964V5.232H98.6391V5.964H96.6111ZM98.8311 5.712L98.0391 5.592L100.547 2.472H101.471L98.8311 5.712ZM104.908 8.832C104.3 8.832 103.752 8.696 103.264 8.424C102.784 8.144 102.404 7.764 102.124 7.284C101.844 6.796 101.704 6.24 101.704 5.616C101.704 4.984 101.844 4.428 102.124 3.948C102.404 3.468 102.784 3.092 103.264 2.82C103.744 2.548 104.292 2.412 104.908 2.412C105.532 2.412 106.084 2.548 106.564 2.82C107.053 3.092 107.433 3.468 107.704 3.948C107.985 4.428 108.125 4.984 108.125 5.616C108.125 6.24 107.985 6.796 107.704 7.284C107.433 7.764 107.053 8.144 106.564 8.424C106.077 8.696 105.525 8.832 104.908 8.832ZM104.908 8.076C105.364 8.076 105.768 7.976 106.12 7.776C106.472 7.568 106.748 7.28 106.949 6.912C107.156 6.536 107.26 6.104 107.26 5.616C107.26 5.12 107.156 4.688 106.949 4.32C106.748 3.952 106.472 3.668 106.12 3.468C105.768 3.26 105.368 3.156 104.921 3.156C104.473 3.156 104.073 3.26 103.72 3.468C103.368 3.668 103.088 3.952 102.88 4.32C102.672 4.688 102.568 5.12 102.568 5.616C102.568 6.104 102.672 6.536 102.88 6.912C103.088 7.28 103.368 7.568 103.72 7.776C104.073 7.976 104.469 8.076 104.908 8.076ZM109.465 8.772V2.472H110.317V5.256H114.289V2.472H115.141V8.772H114.289V5.988H110.317V8.772H109.465ZM118.283 8.772V2.988L118.499 3.216H115.895V2.472H121.523V3.216H118.919L119.135 2.988V8.772H118.283ZM124.682 8.832C124.026 8.832 123.45 8.696 122.954 8.424C122.458 8.144 122.07 7.764 121.79 7.284C121.51 6.796 121.37 6.24 121.37 5.616C121.37 4.992 121.502 4.44 121.766 3.96C122.038 3.48 122.406 3.104 122.87 2.832C123.342 2.552 123.87 2.412 124.454 2.412C125.046 2.412 125.57 2.548 126.026 2.82C126.49 3.084 126.854 3.46 127.118 3.948C127.382 4.428 127.514 4.984 127.514 5.616C127.514 5.656 127.51 5.7 127.502 5.748C127.502 5.788 127.502 5.832 127.502 5.88H122.018V5.244H127.046L126.71 5.496C126.71 5.04 126.61 4.636 126.41 4.284C126.218 3.924 125.954 3.644 125.618 3.444C125.282 3.244 124.894 3.144 124.454 3.144C124.022 3.144 123.634 3.244 123.29 3.444C122.946 3.644 122.678 3.924 122.486 4.284C122.294 4.644 122.198 5.056 122.198 5.52V5.652C122.198 6.132 122.302 6.556 122.51 6.924C122.726 7.284 123.022 7.568 123.398 7.776C123.782 7.976 124.218 8.076 124.706 8.076C125.09 8.076 125.446 8.008 125.774 7.872C126.11 7.736 126.398 7.528 126.638 7.248L127.118 7.8C126.838 8.136 126.486 8.392 126.062 8.568C125.646 8.744 125.186 8.832 124.682 8.832ZM128.92 8.772V2.472H129.772V5.256H133.744V2.472H134.596V8.772H133.744V5.988H129.772V8.772H128.92ZM137.738 8.772V2.988L137.954 3.216H135.35V2.472H140.978V3.216H138.374L138.59 2.988V8.772H137.738ZM140.65 10.524L141.178 8.304L141.274 8.82C141.09 8.82 140.934 8.76 140.806 8.64C140.686 8.52 140.626 8.364 140.626 8.172C140.626 7.98 140.686 7.824 140.806 7.704C140.934 7.584 141.086 7.524 141.262 7.524C141.446 7.524 141.594 7.588 141.706 7.716C141.826 7.844 141.886 7.996 141.886 8.172C141.886 8.236 141.882 8.3 141.874 8.364C141.866 8.428 141.85 8.5 141.826 8.58C141.802 8.66 141.77 8.756 141.73 8.868L141.226 10.524H140.65ZM5.784 26.772L3.192 23.652L3.9 23.232L6.792 26.772H5.784ZM1.164 26.772V20.472H2.016V26.772H1.164ZM1.752 23.964V23.232H3.78V23.964H1.752ZM3.972 23.712L3.18 23.592L5.688 20.472H6.612L3.972 23.712ZM11.4515 26.772V25.38L11.4155 25.152V22.824C11.4155 22.288 11.2635 21.876 10.9595 21.588C10.6635 21.3 10.2195 21.156 9.62746 21.156C9.21946 21.156 8.83146 21.224 8.46346 21.36C8.09546 21.496 7.78346 21.676 7.52746 21.9L7.14346 21.264C7.46346 20.992 7.84746 20.784 8.29546 20.64C8.74346 20.488 9.21546 20.412 9.71146 20.412C10.5275 20.412 11.1555 20.616 11.5955 21.024C12.0435 21.424 12.2675 22.036 12.2675 22.86V26.772H11.4515ZM9.27946 26.832C8.80746 26.832 8.39546 26.756 8.04346 26.604C7.69946 26.444 7.43546 26.228 7.25146 25.956C7.06746 25.676 6.97546 25.356 6.97546 24.996C6.97546 24.668 7.05146 24.372 7.20346 24.108C7.36346 23.836 7.61946 23.62 7.97146 23.46C8.33146 23.292 8.81146 23.208 9.41146 23.208H11.5835V23.844H9.43546C8.82746 23.844 8.40346 23.952 8.16346 24.168C7.93146 24.384 7.81546 24.652 7.81546 24.972C7.81546 25.332 7.95546 25.62 8.23546 25.836C8.51546 26.052 8.90746 26.16 9.41146 26.16C9.89146 26.16 10.3035 26.052 10.6475 25.836C10.9995 25.612 11.2555 25.292 11.4155 24.876L11.6075 25.464C11.4475 25.88 11.1675 26.212 10.7675 26.46C10.3755 26.708 9.87946 26.832 9.27946 26.832ZM17.3076 26.832C16.7636 26.832 16.2716 26.708 15.8316 26.46C15.3916 26.204 15.0396 25.84 14.7756 25.368C14.5196 24.888 14.3916 24.304 14.3916 23.616C14.3916 22.928 14.5196 22.348 14.7756 21.876C15.0316 21.396 15.3796 21.032 15.8196 20.784C16.2596 20.536 16.7556 20.412 17.3076 20.412C17.9076 20.412 18.4436 20.548 18.9156 20.82C19.3956 21.084 19.7716 21.46 20.0436 21.948C20.3156 22.428 20.4516 22.984 20.4516 23.616C20.4516 24.256 20.3156 24.816 20.0436 25.296C19.7716 25.776 19.3956 26.152 18.9156 26.424C18.4436 26.696 17.9076 26.832 17.3076 26.832ZM14.0556 29.1V20.472H14.8716V22.368L14.7876 23.628L14.9076 24.9V29.1H14.0556ZM17.2476 26.076C17.6956 26.076 18.0956 25.976 18.4476 25.776C18.7996 25.568 19.0796 25.28 19.2876 24.912C19.4956 24.536 19.5996 24.104 19.5996 23.616C19.5996 23.128 19.4956 22.7 19.2876 22.332C19.0796 21.964 18.7996 21.676 18.4476 21.468C18.0956 21.26 17.6956 21.156 17.2476 21.156C16.7996 21.156 16.3956 21.26 16.0356 21.468C15.6836 21.676 15.4036 21.964 15.1956 22.332C14.9956 22.7 14.8956 23.128 14.8956 23.616C14.8956 24.104 14.9956 24.536 15.1956 24.912C15.4036 25.28 15.6836 25.568 16.0356 25.776C16.3956 25.976 16.7996 26.076 17.2476 26.076ZM22.7677 26.772V20.988L22.9837 21.216H20.3797V20.472H26.0077V21.216H23.4037L23.6197 20.988V26.772H22.7677ZM29.2556 26.784L26.7596 26.772V20.472H27.6116V22.668L29.4116 22.692C30.2036 22.7 30.8076 22.876 31.2236 23.22C31.6396 23.564 31.8476 24.06 31.8476 24.708C31.8476 25.38 31.6236 25.896 31.1756 26.256C30.7276 26.616 30.0876 26.792 29.2556 26.784ZM29.1956 26.136C29.7876 26.144 30.2316 26.028 30.5276 25.788C30.8316 25.54 30.9836 25.18 30.9836 24.708C30.9836 24.236 30.8356 23.892 30.5396 23.676C30.2436 23.452 29.7956 23.336 29.1956 23.328L27.6116 23.304V26.112L29.1956 26.136ZM32.9036 26.772V20.472H33.7556V26.772H32.9036ZM35.1615 28.524L35.6895 26.304L35.7855 26.82C35.6015 26.82 35.4455 26.76 35.3175 26.64C35.1975 26.52 35.1375 26.364 35.1375 26.172C35.1375 25.98 35.1975 25.824 35.3175 25.704C35.4455 25.584 35.5975 25.524 35.7735 25.524C35.9575 25.524 36.1055 25.588 36.2175 25.716C36.3375 25.844 36.3975 25.996 36.3975 26.172C36.3975 26.236 36.3935 26.3 36.3855 26.364C36.3775 26.428 36.3615 26.5 36.3375 26.58C36.3135 26.66 36.2815 26.756 36.2415 26.868L35.7375 28.524H35.1615ZM44.2291 26.844C43.5971 26.844 43.0131 26.74 42.4771 26.532C41.9411 26.316 41.4771 26.016 41.0851 25.632C40.6931 25.248 40.3851 24.796 40.1611 24.276C39.9451 23.756 39.8371 23.188 39.8371 22.572C39.8371 21.956 39.9451 21.388 40.1611 20.868C40.3851 20.348 40.6931 19.896 41.0851 19.512C41.4851 19.128 41.9531 18.832 42.4891 18.624C43.0251 18.408 43.6091 18.3 44.2411 18.3C44.8491 18.3 45.4211 18.404 45.9571 18.612C46.4931 18.812 46.9451 19.116 47.3131 19.524L46.7491 20.088C46.4051 19.736 46.0251 19.484 45.6091 19.332C45.1931 19.172 44.7451 19.092 44.2651 19.092C43.7611 19.092 43.2931 19.18 42.8611 19.356C42.4291 19.524 42.0531 19.768 41.7331 20.088C41.4131 20.4 41.1611 20.768 40.9771 21.192C40.8011 21.608 40.7131 22.068 40.7131 22.572C40.7131 23.076 40.8011 23.54 40.9771 23.964C41.1611 24.38 41.4131 24.748 41.7331 25.068C42.0531 25.38 42.4291 25.624 42.8611 25.8C43.2931 25.968 43.7611 26.052 44.2651 26.052C44.7451 26.052 45.1931 25.972 45.6091 25.812C46.0251 25.652 46.4051 25.396 46.7491 25.044L47.3131 25.608C46.9451 26.016 46.4931 26.324 45.9571 26.532C45.4211 26.74 44.8451 26.844 44.2291 26.844ZM48.6089 26.772V18.372H51.7529C52.8169 18.372 53.6529 18.628 54.2609 19.14C54.8769 19.644 55.1849 20.348 55.1849 21.252C55.1849 21.844 55.0449 22.356 54.7649 22.788C54.4929 23.212 54.1009 23.54 53.5889 23.772C53.0769 23.996 52.4649 24.108 51.7529 24.108H49.1009L49.4969 23.7V26.772H48.6089ZM54.3449 26.772L52.1849 23.724H53.1449L55.3169 26.772H54.3449ZM49.4969 23.772L49.1009 23.352H51.7289C52.5689 23.352 53.2049 23.168 53.6369 22.8C54.0769 22.432 54.2969 21.916 54.2969 21.252C54.2969 20.58 54.0769 20.06 53.6369 19.692C53.2049 19.324 52.5689 19.14 51.7289 19.14H49.1009L49.4969 18.72V23.772ZM56.8008 26.772V18.372H57.5328L61.3728 24.924H60.9888L64.7928 18.372H65.5248V26.772H64.6728V19.704H64.8768L61.3728 25.704H60.9528L57.4248 19.704H57.6528V26.772H56.8008ZM67.0857 28.524L67.6137 26.304L67.7097 26.82C67.5257 26.82 67.3697 26.76 67.2417 26.64C67.1217 26.52 67.0617 26.364 67.0617 26.172C67.0617 25.98 67.1217 25.824 67.2417 25.704C67.3697 25.584 67.5217 25.524 67.6977 25.524C67.8817 25.524 68.0297 25.588 68.1417 25.716C68.2617 25.844 68.3217 25.996 68.3217 26.172C68.3217 26.236 68.3177 26.3 68.3097 26.364C68.3017 26.428 68.2857 26.5 68.2617 26.58C68.2377 26.66 68.2057 26.756 68.1657 26.868L67.6617 28.524H67.0857ZM76.2613 26.772V25.38L76.2253 25.152V22.824C76.2253 22.288 76.0733 21.876 75.7693 21.588C75.4733 21.3 75.0293 21.156 74.4373 21.156C74.0293 21.156 73.6413 21.224 73.2733 21.36C72.9053 21.496 72.5933 21.676 72.3373 21.9L71.9533 21.264C72.2733 20.992 72.6573 20.784 73.1053 20.64C73.5533 20.488 74.0253 20.412 74.5213 20.412C75.3373 20.412 75.9653 20.616 76.4053 21.024C76.8533 21.424 77.0773 22.036 77.0773 22.86V26.772H76.2613ZM74.0893 26.832C73.6173 26.832 73.2053 26.756 72.8533 26.604C72.5093 26.444 72.2453 26.228 72.0613 25.956C71.8773 25.676 71.7853 25.356 71.7853 24.996C71.7853 24.668 71.8613 24.372 72.0133 24.108C72.1733 23.836 72.4293 23.62 72.7813 23.46C73.1413 23.292 73.6213 23.208 74.2213 23.208H76.3933V23.844H74.2453C73.6373 23.844 73.2133 23.952 72.9733 24.168C72.7413 24.384 72.6253 24.652 72.6253 24.972C72.6253 25.332 72.7653 25.62 73.0453 25.836C73.3253 26.052 73.7173 26.16 74.2213 26.16C74.7013 26.16 75.1133 26.052 75.4573 25.836C75.8093 25.612 76.0653 25.292 76.2253 24.876L76.4173 25.464C76.2573 25.88 75.9773 26.212 75.5773 26.46C75.1853 26.708 74.6893 26.832 74.0893 26.832ZM78.8654 26.772V20.472H81.6494C82.3614 20.472 82.9214 20.608 83.3294 20.88C83.7454 21.152 83.9534 21.552 83.9534 22.08C83.9534 22.592 83.7574 22.988 83.3654 23.268C82.9734 23.54 82.4574 23.676 81.8174 23.676L81.9854 23.424C82.7374 23.424 83.2894 23.564 83.6414 23.844C83.9934 24.124 84.1694 24.528 84.1694 25.056C84.1694 25.6 83.9694 26.024 83.5694 26.328C83.1774 26.624 82.5654 26.772 81.7334 26.772H78.8654ZM79.6934 26.1H81.6974C82.2334 26.1 82.6374 26.016 82.9094 25.848C83.1894 25.672 83.3294 25.392 83.3294 25.008C83.3294 24.624 83.2054 24.344 82.9574 24.168C82.7094 23.992 82.3174 23.904 81.7814 23.904H79.6934V26.1ZM79.6934 23.268H81.5894C82.0774 23.268 82.4494 23.176 82.7054 22.992C82.9694 22.808 83.1014 22.54 83.1014 22.188C83.1014 21.836 82.9694 21.572 82.7054 21.396C82.4494 21.22 82.0774 21.132 81.5894 21.132H79.6934V23.268ZM86.8862 26.772V20.988L87.1022 21.216H84.4982V20.472H90.1262V21.216H87.5222L87.7382 20.988V26.772H86.8862ZM93.1771 26.832C92.5691 26.832 92.0211 26.696 91.5331 26.424C91.0531 26.144 90.6731 25.764 90.3931 25.284C90.1131 24.796 89.9731 24.24 89.9731 23.616C89.9731 22.984 90.1131 22.428 90.3931 21.948C90.6731 21.468 91.0531 21.092 91.5331 20.82C92.0131 20.548 92.5611 20.412 93.1771 20.412C93.8011 20.412 94.3531 20.548 94.8331 20.82C95.3211 21.092 95.7011 21.468 95.9731 21.948C96.2531 22.428 96.3931 22.984 96.3931 23.616C96.3931 24.24 96.2531 24.796 95.9731 25.284C95.7011 25.764 95.3211 26.144 94.8331 26.424C94.3451 26.696 93.7931 26.832 93.1771 26.832ZM93.1771 26.076C93.6331 26.076 94.0371 25.976 94.3891 25.776C94.7411 25.568 95.0171 25.28 95.2171 24.912C95.4251 24.536 95.5291 24.104 95.5291 23.616C95.5291 23.12 95.4251 22.688 95.2171 22.32C95.0171 21.952 94.7411 21.668 94.3891 21.468C94.0371 21.26 93.6371 21.156 93.1891 21.156C92.7411 21.156 92.3411 21.26 91.9891 21.468C91.6371 21.668 91.3571 21.952 91.1491 22.32C90.9411 22.688 90.8371 23.12 90.8371 23.616C90.8371 24.104 90.9411 24.536 91.1491 24.912C91.3571 25.28 91.6371 25.568 91.9891 25.776C92.3411 25.976 92.7371 26.076 93.1771 26.076ZM97.734 26.772V20.472H98.598L101.454 25.308H101.094L103.998 20.472H104.79V26.772H104.01V21.444L104.166 21.516L101.454 26.004H101.07L98.334 21.468L98.514 21.432V26.772H97.734ZM110.646 26.772V25.38L110.61 25.152V22.824C110.61 22.288 110.458 21.876 110.154 21.588C109.858 21.3 109.414 21.156 108.822 21.156C108.414 21.156 108.026 21.224 107.658 21.36C107.29 21.496 106.978 21.676 106.722 21.9L106.338 21.264C106.658 20.992 107.042 20.784 107.49 20.64C107.938 20.488 108.41 20.412 108.906 20.412C109.722 20.412 110.35 20.616 110.79 21.024C111.238 21.424 111.462 22.036 111.462 22.86V26.772H110.646ZM108.474 26.832C108.002 26.832 107.59 26.756 107.238 26.604C106.894 26.444 106.63 26.228 106.446 25.956C106.262 25.676 106.17 25.356 106.17 24.996C106.17 24.668 106.246 24.372 106.398 24.108C106.558 23.836 106.814 23.62 107.166 23.46C107.526 23.292 108.006 23.208 108.606 23.208H110.778V23.844H108.63C108.022 23.844 107.598 23.952 107.358 24.168C107.126 24.384 107.01 24.652 107.01 24.972C107.01 25.332 107.15 25.62 107.43 25.836C107.71 26.052 108.102 26.16 108.606 26.16C109.086 26.16 109.498 26.052 109.842 25.836C110.194 25.612 110.45 25.292 110.61 24.876L110.802 25.464C110.642 25.88 110.362 26.212 109.962 26.46C109.57 26.708 109.074 26.832 108.474 26.832ZM114.451 26.772V20.988L114.667 21.216H112.063V20.472H117.691V21.216H115.087L115.303 20.988V26.772H114.451ZM118.442 26.772V20.472H119.294V25.476L123.506 20.472H124.262V26.772H123.41V21.756L119.21 26.772H118.442ZM127.916 26.844C127.46 26.844 127.008 26.78 126.56 26.652C126.112 26.524 125.716 26.328 125.372 26.064L125.648 25.428C125.952 25.652 126.304 25.824 126.704 25.944C127.104 26.056 127.5 26.112 127.892 26.112C128.284 26.104 128.624 26.048 128.912 25.944C129.2 25.84 129.424 25.696 129.584 25.512C129.744 25.328 129.824 25.12 129.824 24.888C129.824 24.552 129.672 24.292 129.368 24.108C129.064 23.916 128.648 23.82 128.12 23.82H126.86V23.196H128.06C128.372 23.196 128.648 23.156 128.888 23.076C129.128 22.996 129.312 22.88 129.44 22.728C129.576 22.576 129.644 22.396 129.644 22.188C129.644 21.964 129.564 21.772 129.404 21.612C129.252 21.452 129.04 21.332 128.768 21.252C128.496 21.172 128.188 21.132 127.844 21.132C127.532 21.14 127.208 21.188 126.872 21.276C126.536 21.356 126.204 21.48 125.876 21.648L125.636 20.988C126.004 20.796 126.368 20.652 126.728 20.556C127.096 20.452 127.464 20.4 127.832 20.4C128.336 20.384 128.788 20.444 129.188 20.58C129.596 20.716 129.92 20.912 130.16 21.168C130.4 21.416 130.52 21.716 130.52 22.068C130.52 22.38 130.424 22.652 130.232 22.884C130.04 23.116 129.784 23.296 129.464 23.424C129.144 23.552 128.78 23.616 128.372 23.616L128.408 23.388C129.128 23.388 129.688 23.528 130.088 23.808C130.496 24.088 130.7 24.468 130.7 24.948C130.7 25.324 130.576 25.656 130.328 25.944C130.08 26.224 129.744 26.444 129.32 26.604C128.904 26.764 128.436 26.844 127.916 26.844ZM136.066 26.772V25.38L136.03 25.152V22.824C136.03 22.288 135.878 21.876 135.574 21.588C135.278 21.3 134.834 21.156 134.242 21.156C133.834 21.156 133.446 21.224 133.078 21.36C132.71 21.496 132.398 21.676 132.142 21.9L131.758 21.264C132.078 20.992 132.462 20.784 132.91 20.64C133.358 20.488 133.83 20.412 134.326 20.412C135.142 20.412 135.77 20.616 136.21 21.024C136.658 21.424 136.882 22.036 136.882 22.86V26.772H136.066ZM133.894 26.832C133.422 26.832 133.01 26.756 132.658 26.604C132.314 26.444 132.05 26.228 131.866 25.956C131.682 25.676 131.59 25.356 131.59 24.996C131.59 24.668 131.666 24.372 131.818 24.108C131.978 23.836 132.234 23.62 132.586 23.46C132.946 23.292 133.426 23.208 134.026 23.208H136.198V23.844H134.05C133.442 23.844 133.018 23.952 132.778 24.168C132.546 24.384 132.43 24.652 132.43 24.972C132.43 25.332 132.57 25.62 132.85 25.836C133.13 26.052 133.522 26.16 134.026 26.16C134.506 26.16 134.918 26.052 135.262 25.836C135.614 25.612 135.87 25.292 136.03 24.876L136.222 25.464C136.062 25.88 135.782 26.212 135.382 26.46C134.99 26.708 134.494 26.832 133.894 26.832ZM138.67 26.772V20.472H139.522V26.028H143.374V20.472H144.226V26.772H138.67ZM144.442 28.296V26.7L144.658 26.772H143.374V26.028H145.246V28.296H144.442ZM146.394 26.772V20.472H147.246V25.476L151.458 20.472H152.214V26.772H151.362V21.756L147.162 26.772H146.394ZM159.599 26.832C158.999 26.832 158.459 26.696 157.979 26.424C157.507 26.144 157.135 25.764 156.863 25.284C156.591 24.796 156.455 24.24 156.455 23.616C156.455 22.984 156.591 22.428 156.863 21.948C157.135 21.468 157.507 21.092 157.979 20.82C158.459 20.548 158.999 20.412 159.599 20.412C160.199 20.412 160.735 20.548 161.207 20.82C161.679 21.092 162.051 21.468 162.323 21.948C162.595 22.428 162.731 22.984 162.731 23.616C162.731 24.24 162.595 24.796 162.323 25.284C162.051 25.764 161.679 26.144 161.207 26.424C160.735 26.696 160.199 26.832 159.599 26.832ZM154.175 26.772V20.472H155.027V23.184H156.947V23.964H155.027V26.772H154.175ZM159.599 26.088C160.039 26.088 160.431 25.984 160.775 25.776C161.119 25.568 161.391 25.28 161.591 24.912C161.791 24.536 161.891 24.104 161.891 23.616C161.891 23.12 161.791 22.688 161.591 22.32C161.391 21.952 161.119 21.668 160.775 21.468C160.431 21.26 160.039 21.156 159.599 21.156C159.167 21.156 158.775 21.26 158.423 21.468C158.079 21.668 157.807 21.952 157.607 22.32C157.407 22.688 157.307 23.12 157.307 23.616C157.307 24.104 157.407 24.536 157.607 24.912C157.807 25.28 158.079 25.568 158.423 25.776C158.775 25.984 159.167 26.088 159.599 26.088ZM1.164 44.772V38.472H2.016V43.476L6.228 38.472H6.984V44.772H6.132V39.756L1.932 44.772H1.164ZM14.1983 44.832C13.5903 44.832 13.0423 44.696 12.5543 44.424C12.0743 44.144 11.6943 43.764 11.4143 43.284C11.1343 42.796 10.9943 42.24 10.9943 41.616C10.9943 40.984 11.1343 40.428 11.4143 39.948C11.6943 39.468 12.0743 39.092 12.5543 38.82C13.0343 38.548 13.5823 38.412 14.1983 38.412C14.8223 38.412 15.3743 38.548 15.8543 38.82C16.3423 39.092 16.7223 39.468 16.9943 39.948C17.2743 40.428 17.4143 40.984 17.4143 41.616C17.4143 42.24 17.2743 42.796 16.9943 43.284C16.7223 43.764 16.3423 44.144 15.8543 44.424C15.3663 44.696 14.8143 44.832 14.1983 44.832ZM14.1983 44.076C14.6543 44.076 15.0583 43.976 15.4103 43.776C15.7623 43.568 16.0383 43.28 16.2383 42.912C16.4463 42.536 16.5503 42.104 16.5503 41.616C16.5503 41.12 16.4463 40.688 16.2383 40.32C16.0383 39.952 15.7623 39.668 15.4103 39.468C15.0583 39.26 14.6583 39.156 14.2103 39.156C13.7623 39.156 13.3623 39.26 13.0103 39.468C12.6583 39.668 12.3783 39.952 12.1703 40.32C11.9623 40.688 11.8583 41.12 11.8583 41.616C11.8583 42.104 11.9623 42.536 12.1703 42.912C12.3783 43.28 12.6583 43.568 13.0103 43.776C13.3623 43.976 13.7583 44.076 14.1983 44.076ZM19.7209 44.772V38.988L19.9369 39.216H17.3329V38.472H22.9609V39.216H20.3569L20.5729 38.988V44.772H19.7209ZM25.4767 42.624C24.7327 42.624 24.1447 42.456 23.7127 42.12C23.2807 41.776 23.0647 41.248 23.0647 40.536V38.472H23.9047V40.488C23.9047 40.968 24.0607 41.328 24.3727 41.568C24.6847 41.808 25.1047 41.928 25.6327 41.928C25.9527 41.928 26.2887 41.888 26.6407 41.808C26.9927 41.72 27.3487 41.596 27.7087 41.436L27.6967 42.108C27.3287 42.268 26.9567 42.396 26.5807 42.492C26.2127 42.58 25.8447 42.624 25.4767 42.624ZM27.6247 44.772V38.472H28.4767V44.772H27.6247ZM33.1163 44.832C32.4603 44.832 31.8843 44.696 31.3883 44.424C30.8923 44.144 30.5043 43.764 30.2243 43.284C29.9443 42.796 29.8043 42.24 29.8043 41.616C29.8043 40.992 29.9363 40.44 30.2003 39.96C30.4723 39.48 30.8403 39.104 31.3043 38.832C31.7763 38.552 32.3043 38.412 32.8883 38.412C33.4803 38.412 34.0043 38.548 34.4603 38.82C34.9243 39.084 35.2883 39.46 35.5523 39.948C35.8163 40.428 35.9483 40.984 35.9483 41.616C35.9483 41.656 35.9443 41.7 35.9363 41.748C35.9363 41.788 35.9363 41.832 35.9363 41.88H30.4523V41.244H35.4803L35.1443 41.496C35.1443 41.04 35.0443 40.636 34.8443 40.284C34.6523 39.924 34.3883 39.644 34.0523 39.444C33.7163 39.244 33.3283 39.144 32.8883 39.144C32.4563 39.144 32.0683 39.244 31.7243 39.444C31.3803 39.644 31.1123 39.924 30.9203 40.284C30.7283 40.644 30.6323 41.056 30.6323 41.52V41.652C30.6323 42.132 30.7363 42.556 30.9443 42.924C31.1603 43.284 31.4563 43.568 31.8323 43.776C32.2163 43.976 32.6523 44.076 33.1403 44.076C33.5243 44.076 33.8803 44.008 34.2083 43.872C34.5443 43.736 34.8323 43.528 35.0723 43.248L35.5523 43.8C35.2723 44.136 34.9203 44.392 34.4963 44.568C34.0803 44.744 33.6203 44.832 33.1163 44.832ZM33.9563 37.212C33.8203 37.212 33.7003 37.164 33.5963 37.068C33.4923 36.972 33.4403 36.848 33.4403 36.696C33.4403 36.544 33.4923 36.42 33.5963 36.324C33.7003 36.228 33.8203 36.18 33.9563 36.18C34.1003 36.18 34.2203 36.228 34.3163 36.324C34.4203 36.42 34.4723 36.544 34.4723 36.696C34.4723 36.848 34.4203 36.972 34.3163 37.068C34.2203 37.164 34.1003 37.212 33.9563 37.212ZM31.8203 37.212C31.6763 37.212 31.5523 37.164 31.4483 37.068C31.3523 36.972 31.3043 36.848 31.3043 36.696C31.3043 36.544 31.3523 36.42 31.4483 36.324C31.5523 36.228 31.6763 36.18 31.8203 36.18C31.9563 36.18 32.0763 36.228 32.1803 36.324C32.2843 36.42 32.3363 36.544 32.3363 36.696C32.3363 36.848 32.2843 36.972 32.1803 37.068C32.0763 37.164 31.9563 37.212 31.8203 37.212ZM38.2731 44.772V38.988L38.4891 39.216H35.8851V38.472H41.5131V39.216H38.9091L39.1251 38.988V44.772H38.2731ZM42.2649 44.772V38.472H43.1169V41.256H47.0889V38.472H47.9409V44.772H47.0889V41.988H43.1169V44.772H42.2649ZM52.4746 44.832C51.8666 44.832 51.3186 44.696 50.8306 44.424C50.3506 44.144 49.9706 43.764 49.6906 43.284C49.4106 42.796 49.2706 42.24 49.2706 41.616C49.2706 40.984 49.4106 40.428 49.6906 39.948C49.9706 39.468 50.3506 39.092 50.8306 38.82C51.3106 38.548 51.8586 38.412 52.4746 38.412C53.0986 38.412 53.6506 38.548 54.1306 38.82C54.6186 39.092 54.9986 39.468 55.2706 39.948C55.5506 40.428 55.6906 40.984 55.6906 41.616C55.6906 42.24 55.5506 42.796 55.2706 43.284C54.9986 43.764 54.6186 44.144 54.1306 44.424C53.6426 44.696 53.0906 44.832 52.4746 44.832ZM52.4746 44.076C52.9306 44.076 53.3346 43.976 53.6866 43.776C54.0386 43.568 54.3146 43.28 54.5146 42.912C54.7226 42.536 54.8266 42.104 54.8266 41.616C54.8266 41.12 54.7226 40.688 54.5146 40.32C54.3146 39.952 54.0386 39.668 53.6866 39.468C53.3346 39.26 52.9346 39.156 52.4866 39.156C52.0386 39.156 51.6386 39.26 51.2866 39.468C50.9346 39.668 50.6546 39.952 50.4466 40.32C50.2386 40.688 50.1346 41.12 50.1346 41.616C50.1346 42.104 50.2386 42.536 50.4466 42.912C50.6546 43.28 50.9346 43.568 51.2866 43.776C51.6386 43.976 52.0346 44.076 52.4746 44.076ZM59.6715 44.832C59.0475 44.832 58.4875 44.696 57.9915 44.424C57.5035 44.144 57.1195 43.764 56.8395 43.284C56.5595 42.796 56.4195 42.24 56.4195 41.616C56.4195 40.984 56.5595 40.428 56.8395 39.948C57.1195 39.468 57.5035 39.092 57.9915 38.82C58.4875 38.548 59.0475 38.412 59.6715 38.412C60.2075 38.412 60.6915 38.516 61.1235 38.724C61.5555 38.932 61.8955 39.244 62.1435 39.66L61.5075 40.092C61.2915 39.772 61.0235 39.536 60.7035 39.384C60.3835 39.232 60.0355 39.156 59.6595 39.156C59.2115 39.156 58.8075 39.26 58.4475 39.468C58.0875 39.668 57.8035 39.952 57.5955 40.32C57.3875 40.688 57.2835 41.12 57.2835 41.616C57.2835 42.112 57.3875 42.544 57.5955 42.912C57.8035 43.28 58.0875 43.568 58.4475 43.776C58.8075 43.976 59.2115 44.076 59.6595 44.076C60.0355 44.076 60.3835 44 60.7035 43.848C61.0235 43.696 61.2915 43.464 61.5075 43.152L62.1435 43.584C61.8955 43.992 61.5555 44.304 61.1235 44.52C60.6915 44.728 60.2075 44.832 59.6715 44.832ZM64.396 44.772V38.988L64.612 39.216H62.008V38.472H67.636V39.216H65.032L65.248 38.988V44.772H64.396ZM70.9319 44.784L68.3879 44.772V38.472H69.2399V40.668L71.0999 40.692C71.8919 40.7 72.4919 40.876 72.8999 41.22C73.3159 41.564 73.5239 42.06 73.5239 42.708C73.5239 43.38 73.2999 43.896 72.8519 44.256C72.4119 44.616 71.7719 44.792 70.9319 44.784ZM70.8839 44.136C71.4679 44.144 71.9079 44.028 72.2039 43.788C72.5079 43.54 72.6599 43.18 72.6599 42.708C72.6599 42.236 72.5119 41.892 72.2159 41.676C71.9199 41.452 71.4759 41.336 70.8839 41.328L69.2399 41.304V44.112L70.8839 44.136Z" fill="#02043D"/>
</svg>
