<svg width="117" height="38" viewBox="0 0 117 38" fill="none" xmlns="http://www.w3.org/2000/svg">
<path d="M7.3351e-06 14L6.30001 -9.53674e-07H8.86001L15.18 14H12.46L7.04001 1.38H8.08001L2.68001 14H7.3351e-06ZM2.90001 10.76L3.60001 8.72H11.16L11.86 10.76H2.90001ZM16.2469 14V3.32H18.7469V7.66H24.1269V3.32H26.6269V14H24.1269V9.78H18.7469V14H16.2469ZM35.6574 14V11.84L35.5174 11.38V7.6C35.5174 6.86667 35.2974 6.3 34.8574 5.9C34.4174 5.48667 33.7507 5.28 32.8574 5.28C32.2574 5.28 31.664 5.37333 31.0774 5.56C30.504 5.74667 30.0174 6.00667 29.6174 6.34L28.6374 4.52C29.2107 4.08 29.8907 3.75333 30.6774 3.54C31.4774 3.31333 32.304 3.2 33.1574 3.2C34.704 3.2 35.8974 3.57333 36.7374 4.32C37.5907 5.05333 38.0174 6.19333 38.0174 7.74V14H35.6574ZM32.2974 14.14C31.4974 14.14 30.7974 14.0067 30.1974 13.74C29.5974 13.46 29.1307 13.08 28.7974 12.6C28.4774 12.1067 28.3174 11.5533 28.3174 10.94C28.3174 10.34 28.4574 9.8 28.7374 9.32C29.0307 8.84 29.504 8.46 30.1574 8.18C30.8107 7.9 31.6774 7.76 32.7574 7.76H35.8574V9.42H32.9374C32.084 9.42 31.5107 9.56 31.2174 9.84C30.924 10.1067 30.7774 10.44 30.7774 10.84C30.7774 11.2933 30.9574 11.6533 31.3174 11.92C31.6774 12.1867 32.1774 12.32 32.8174 12.32C33.4307 12.32 33.9774 12.18 34.4574 11.9C34.9507 11.62 35.304 11.2067 35.5174 10.66L35.9374 12.16C35.6974 12.7867 35.264 13.2733 34.6374 13.62C34.024 13.9667 33.244 14.14 32.2974 14.14ZM40.1309 14.2C39.9309 14.2 39.7109 14.18 39.4709 14.14C39.2443 14.1 39.0043 14.0467 38.7509 13.98L38.8709 11.88C38.9643 11.8933 39.0509 11.9067 39.1309 11.92C39.2109 11.9333 39.2843 11.94 39.3509 11.94C39.7643 11.94 40.0843 11.8133 40.3109 11.56C40.5376 11.3067 40.7043 10.9667 40.8109 10.54C40.9309 10.1 41.0109 9.61333 41.0509 9.08C41.1043 8.53333 41.1443 7.98667 41.1709 7.44L41.3509 3.32H49.9909V14H47.4909V4.76L48.0709 5.44H42.9909L43.5309 4.74L43.3909 7.56C43.3509 8.50667 43.2709 9.38667 43.1509 10.2C43.0443 11 42.8709 11.7 42.6309 12.3C42.4043 12.9 42.0843 13.3667 41.6709 13.7C41.2709 14.0333 40.7576 14.2 40.1309 14.2ZM52.5578 14V3.32H55.0578V10.36L60.9578 3.32H63.2378V14H60.7378V6.96L54.8578 14H52.5578ZM68.0208 14V4.84L68.6008 5.44H64.2608V3.32H74.2608V5.44H69.9408L70.5208 4.84V14H68.0208ZM75.2742 14V3.32H77.7742V10.36L83.6742 3.32H85.9542V14H83.4542V6.96L77.5742 14H75.2742ZM96.1772 14L92.3172 8.88L94.3572 7.62L99.1172 14H96.1772ZM88.5172 14V3.32H91.0172V14H88.5172ZM90.2772 9.72V7.64H93.8972V9.72H90.2772ZM94.5972 8.96L92.2572 8.68L96.1772 3.32H98.8572L94.5972 8.96ZM106.365 14V11.84L106.225 11.38V7.6C106.225 6.86667 106.005 6.3 105.565 5.9C105.125 5.48667 104.458 5.28 103.565 5.28C102.965 5.28 102.372 5.37333 101.785 5.56C101.212 5.74667 100.725 6.00667 100.325 6.34L99.3452 4.52C99.9185 4.08 100.598 3.75333 101.385 3.54C102.185 3.31333 103.012 3.2 103.865 3.2C105.412 3.2 106.605 3.57333 107.445 4.32C108.298 5.05333 108.725 6.19333 108.725 7.74V14H106.365ZM103.005 14.14C102.205 14.14 101.505 14.0067 100.905 13.74C100.305 13.46 99.8385 13.08 99.5052 12.6C99.1852 12.1067 99.0252 11.5533 99.0252 10.94C99.0252 10.34 99.1652 9.8 99.4452 9.32C99.7385 8.84 100.212 8.46 100.865 8.18C101.518 7.9 102.385 7.76 103.465 7.76H106.565V9.42H103.645C102.792 9.42 102.218 9.56 101.925 9.84C101.632 10.1067 101.485 10.44 101.485 10.84C101.485 11.2933 101.665 11.6533 102.025 11.92C102.385 12.1867 102.885 12.32 103.525 12.32C104.138 12.32 104.685 12.18 105.165 11.9C105.658 11.62 106.012 11.2067 106.225 10.66L106.645 12.16C106.405 12.7867 105.972 13.2733 105.345 13.62C104.732 13.9667 103.952 14.14 103.005 14.14ZM1.50001 34V23.32H4.00001V30.36L9.90001 23.32H12.18V34H9.68001V26.96L3.80001 34H1.50001ZM24.3303 34.14C23.2103 34.14 22.2103 33.9067 21.3303 33.44C20.4637 32.96 19.7837 32.3067 19.2903 31.48C18.797 30.6533 18.5503 29.7133 18.5503 28.66C18.5503 27.5933 18.797 26.6533 19.2903 25.84C19.7837 25.0133 20.4637 24.3667 21.3303 23.9C22.2103 23.4333 23.2103 23.2 24.3303 23.2C25.3703 23.2 26.2837 23.4133 27.0703 23.84C27.8703 24.2533 28.477 24.8667 28.8903 25.68L26.9703 26.8C26.6503 26.2933 26.257 25.92 25.7903 25.68C25.337 25.44 24.8437 25.32 24.3103 25.32C23.697 25.32 23.1437 25.4533 22.6503 25.72C22.157 25.9867 21.7703 26.3733 21.4903 26.88C21.2103 27.3733 21.0703 27.9667 21.0703 28.66C21.0703 29.3533 21.2103 29.9533 21.4903 30.46C21.7703 30.9533 22.157 31.3333 22.6503 31.6C23.1437 31.8667 23.697 32 24.3103 32C24.8437 32 25.337 31.88 25.7903 31.64C26.257 31.4 26.6503 31.0267 26.9703 30.52L28.8903 31.64C28.477 32.44 27.8703 33.06 27.0703 33.5C26.2837 33.9267 25.3703 34.14 24.3303 34.14ZM32.4333 34V24.84L33.0133 25.44H28.6733V23.32H38.6733V25.44H34.3533L34.9333 24.84V34H32.4333ZM45.6067 34.14C44.7401 34.14 43.9467 33.94 43.2267 33.54C42.5201 33.14 41.9534 32.54 41.5267 31.74C41.1134 30.9267 40.9067 29.9 40.9067 28.66C40.9067 27.4067 41.1067 26.38 41.5067 25.58C41.9201 24.78 42.4801 24.1867 43.1867 23.8C43.8934 23.4 44.7001 23.2 45.6067 23.2C46.6601 23.2 47.5867 23.4267 48.3867 23.88C49.2001 24.3333 49.8401 24.9667 50.3067 25.78C50.7867 26.5933 51.0267 27.5533 51.0267 28.66C51.0267 29.7667 50.7867 30.7333 50.3067 31.56C49.8401 32.3733 49.2001 33.0067 48.3867 33.46C47.5867 33.9133 46.6601 34.14 45.6067 34.14ZM39.6867 37.88V23.32H42.0667V25.84L41.9867 28.68L42.1867 31.52V37.88H39.6867ZM45.3267 32C45.9267 32 46.4601 31.8667 46.9267 31.6C47.4067 31.3333 47.7867 30.9467 48.0667 30.44C48.3467 29.9333 48.4867 29.34 48.4867 28.66C48.4867 27.9667 48.3467 27.3733 48.0667 26.88C47.7867 26.3733 47.4067 25.9867 46.9267 25.72C46.4601 25.4533 45.9267 25.32 45.3267 25.32C44.7267 25.32 44.1867 25.4533 43.7067 25.72C43.2267 25.9867 42.8467 26.3733 42.5667 26.88C42.2867 27.3733 42.1467 27.9667 42.1467 28.66C42.1467 29.34 42.2867 29.9333 42.5667 30.44C42.8467 30.9467 43.2267 31.3333 43.7067 31.6C44.1867 31.8667 44.7267 32 45.3267 32ZM59.0581 34V31.84L58.9181 31.38V27.6C58.9181 26.8667 58.6981 26.3 58.2581 25.9C57.8181 25.4867 57.1515 25.28 56.2581 25.28C55.6581 25.28 55.0648 25.3733 54.4781 25.56C53.9048 25.7467 53.4181 26.0067 53.0181 26.34L52.0381 24.52C52.6115 24.08 53.2915 23.7533 54.0781 23.54C54.8781 23.3133 55.7048 23.2 56.5581 23.2C58.1048 23.2 59.2981 23.5733 60.1381 24.32C60.9915 25.0533 61.4181 26.1933 61.4181 27.74V34H59.0581ZM55.6981 34.14C54.8981 34.14 54.1981 34.0067 53.5981 33.74C52.9981 33.46 52.5315 33.08 52.1981 32.6C51.8781 32.1067 51.7181 31.5533 51.7181 30.94C51.7181 30.34 51.8581 29.8 52.1381 29.32C52.4315 28.84 52.9048 28.46 53.5581 28.18C54.2115 27.9 55.0781 27.76 56.1581 27.76H59.2581V29.42H56.3381C55.4848 29.42 54.9115 29.56 54.6181 29.84C54.3248 30.1067 54.1781 30.44 54.1781 30.84C54.1781 31.2933 54.3581 31.6533 54.7181 31.92C55.0781 32.1867 55.5781 32.32 56.2181 32.32C56.8315 32.32 57.3781 32.18 57.8581 31.9C58.3515 31.62 58.7048 31.2067 58.9181 30.66L59.3381 32.16C59.0981 32.7867 58.6648 33.2733 58.0381 33.62C57.4248 33.9667 56.6448 34.14 55.6981 34.14ZM65.9317 34V24.84L66.5117 25.44H62.1717V23.32H72.1717V25.44H67.8517L68.4317 24.84V34H65.9317ZM77.6964 34.14C76.5097 34.14 75.4697 33.9067 74.5764 33.44C73.6964 32.96 73.0097 32.3067 72.5164 31.48C72.0364 30.6533 71.7964 29.7133 71.7964 28.66C71.7964 27.5933 72.0297 26.6533 72.4964 25.84C72.9764 25.0133 73.6297 24.3667 74.4564 23.9C75.2964 23.4333 76.2497 23.2 77.3164 23.2C78.3564 23.2 79.2831 23.4267 80.0964 23.88C80.9097 24.3333 81.5497 24.9733 82.0164 25.8C82.4831 26.6267 82.7164 27.6 82.7164 28.72C82.7164 28.8267 82.7097 28.9467 82.6964 29.08C82.6964 29.2133 82.6897 29.34 82.6764 29.46H73.7764V27.8H81.3564L80.3764 28.32C80.3897 27.7067 80.2631 27.1667 79.9964 26.7C79.7297 26.2333 79.3631 25.8667 78.8964 25.6C78.4431 25.3333 77.9164 25.2 77.3164 25.2C76.7031 25.2 76.1631 25.3333 75.6964 25.6C75.2431 25.8667 74.8831 26.24 74.6164 26.72C74.3631 27.1867 74.2364 27.74 74.2364 28.38V28.78C74.2364 29.42 74.3831 29.9867 74.6764 30.48C74.9697 30.9733 75.3831 31.3533 75.9164 31.62C76.4497 31.8867 77.0631 32.02 77.7564 32.02C78.3564 32.02 78.8964 31.9267 79.3764 31.74C79.8564 31.5533 80.2831 31.26 80.6564 30.86L81.9964 32.4C81.5164 32.96 80.9097 33.3933 80.1764 33.7C79.4564 33.9933 78.6297 34.14 77.6964 34.14ZM84.6508 34V23.32H92.8508V25.44H86.5708L87.1508 24.88V34H84.6508ZM93.8703 34V23.32H96.3703V30.36L102.27 23.32H104.55V34H102.05V26.96L96.1703 34H93.8703ZM113.893 34V30.36L114.253 30.78H111.053C109.587 30.78 108.433 30.4733 107.593 29.86C106.767 29.2333 106.353 28.3333 106.353 27.16C106.353 25.9067 106.793 24.9533 107.673 24.3C108.567 23.6467 109.753 23.32 111.233 23.32H116.133V34H113.893ZM106.213 34L109.093 29.92H111.653L108.893 34H106.213ZM113.893 29.56V24.76L114.253 25.42H111.313C110.54 25.42 109.94 25.5667 109.513 25.86C109.1 26.14 108.893 26.6 108.893 27.24C108.893 28.44 109.673 29.04 111.233 29.04H114.253L113.893 29.56Z" fill="#02043D"/>
</svg>
