<svg width="103" height="12" viewBox="0 0 103 12" fill="none" xmlns="http://www.w3.org/2000/svg">
<path d="M3.20399 9.16803C2.59599 9.16803 2.04799 9.03203 1.55999 8.76003C1.07999 8.48003 0.699994 8.10003 0.419994 7.62003C0.139994 7.13203 -6.09457e-06 6.57603 -6.09457e-06 5.95203C-6.09457e-06 5.32003 0.139994 4.76403 0.419994 4.28403C0.699994 3.80403 1.07999 3.42803 1.55999 3.15603C2.03999 2.88403 2.58799 2.74803 3.20399 2.74803C3.82799 2.74803 4.37999 2.88403 4.85999 3.15603C5.34799 3.42803 5.72799 3.80403 5.99999 4.28403C6.27999 4.76403 6.41999 5.32003 6.41999 5.95203C6.41999 6.57603 6.27999 7.13203 5.99999 7.62003C5.72799 8.10003 5.34799 8.48003 4.85999 8.76003C4.37199 9.03203 3.81999 9.16803 3.20399 9.16803ZM3.20399 8.41203C3.65999 8.41203 4.06399 8.31203 4.41599 8.11203C4.76799 7.90403 5.04399 7.61603 5.24399 7.24803C5.45199 6.87203 5.55599 6.44003 5.55599 5.95203C5.55599 5.45603 5.45199 5.02403 5.24399 4.65603C5.04399 4.28803 4.76799 4.00403 4.41599 3.80403C4.06399 3.59603 3.66399 3.49203 3.21599 3.49203C2.76799 3.49203 2.36799 3.59603 2.01599 3.80403C1.66399 4.00403 1.38399 4.28803 1.17599 4.65603C0.967994 5.02403 0.863994 5.45603 0.863994 5.95203C0.863994 6.44003 0.967994 6.87203 1.17599 7.24803C1.38399 7.61603 1.66399 7.90403 2.01599 8.11203C2.36799 8.31203 2.76399 8.41203 3.20399 8.41203ZM10.5929 9.18003C10.0809 9.18003 9.6249 9.09603 9.2249 8.92803C8.8329 8.76003 8.4969 8.50403 8.2169 8.16003C7.9369 7.81603 7.7249 7.39203 7.5809 6.88803C7.4369 6.37603 7.3649 5.78403 7.3649 5.11203C7.3649 4.51203 7.4209 3.98803 7.5329 3.54003C7.6449 3.08403 7.8009 2.69203 8.0009 2.36403C8.2009 2.03603 8.4329 1.76003 8.6969 1.53603C8.9689 1.30403 9.2609 1.12003 9.5729 0.984032C9.8929 0.840032 10.2209 0.732032 10.5569 0.660032L13.3889 3.14713e-05L13.5329 0.792032L10.8689 1.39203C10.7009 1.43203 10.4969 1.48803 10.2569 1.56003C10.0249 1.63203 9.7849 1.74003 9.5369 1.88403C9.2969 2.02803 9.0729 2.22803 8.8649 2.48403C8.6569 2.74003 8.4889 3.07203 8.3609 3.48003C8.2409 3.88003 8.1809 4.38003 8.1809 4.98003C8.1809 5.10803 8.1849 5.21203 8.1929 5.29203C8.2009 5.36403 8.2089 5.44403 8.2169 5.53203C8.2329 5.61203 8.2449 5.73203 8.2529 5.89203L7.8809 5.58003C7.9689 5.09203 8.1489 4.66803 8.4209 4.30803C8.6929 3.94003 9.0329 3.65603 9.4409 3.45603C9.8569 3.24803 10.3169 3.14403 10.8209 3.14403C11.4049 3.14403 11.9249 3.27203 12.3809 3.52803C12.8369 3.77603 13.1929 4.12403 13.4489 4.57203C13.7129 5.02003 13.8449 5.54003 13.8449 6.13203C13.8449 6.71603 13.7089 7.24003 13.4369 7.70403C13.1729 8.16803 12.7969 8.53203 12.3089 8.79603C11.8209 9.05203 11.2489 9.18003 10.5929 9.18003ZM10.6889 8.47203C11.1369 8.47203 11.5329 8.37203 11.8769 8.17203C12.2209 7.96403 12.4889 7.68403 12.6809 7.33203C12.8809 6.98003 12.9809 6.58403 12.9809 6.14403C12.9809 5.71203 12.8809 5.32803 12.6809 4.99203C12.4889 4.65603 12.2209 4.39203 11.8769 4.20003C11.5329 4.00003 11.1329 3.90003 10.6769 3.90003C10.2289 3.90003 9.8329 3.99603 9.4889 4.18803C9.1449 4.37203 8.8729 4.63203 8.6729 4.96803C8.4809 5.30403 8.3849 5.69203 8.3849 6.13203C8.3849 6.57203 8.4809 6.96803 8.6729 7.32003C8.8729 7.67203 9.1449 7.95203 9.4889 8.16003C9.8409 8.36803 10.2409 8.47203 10.6889 8.47203ZM18.4431 9.16803C17.8991 9.16803 17.4071 9.04403 16.9671 8.79603C16.5271 8.54003 16.1751 8.17603 15.9111 7.70403C15.6551 7.22403 15.5271 6.64003 15.5271 5.95203C15.5271 5.26403 15.6551 4.68403 15.9111 4.21203C16.1671 3.73203 16.5151 3.36803 16.9551 3.12003C17.3951 2.87203 17.8911 2.74803 18.4431 2.74803C19.0431 2.74803 19.5791 2.88403 20.0511 3.15603C20.5311 3.42003 20.9071 3.79603 21.1791 4.28403C21.4511 4.76403 21.5871 5.32003 21.5871 5.95203C21.5871 6.59203 21.4511 7.15203 21.1791 7.63203C20.9071 8.11203 20.5311 8.48803 20.0511 8.76003C19.5791 9.03203 19.0431 9.16803 18.4431 9.16803ZM15.1911 11.436V2.80803H16.0071V4.70403L15.9231 5.96403L16.0431 7.23603V11.436H15.1911ZM18.3831 8.41203C18.8311 8.41203 19.2311 8.31203 19.5831 8.11203C19.9351 7.90403 20.2151 7.61603 20.4231 7.24803C20.6311 6.87203 20.7351 6.44003 20.7351 5.95203C20.7351 5.46403 20.6311 5.03603 20.4231 4.66803C20.2151 4.30003 19.9351 4.01203 19.5831 3.80403C19.2311 3.59603 18.8311 3.49203 18.3831 3.49203C17.9351 3.49203 17.5311 3.59603 17.1711 3.80403C16.8191 4.01203 16.5391 4.30003 16.3311 4.66803C16.1311 5.03603 16.0311 5.46403 16.0311 5.95203C16.0311 6.44003 16.1311 6.87203 16.3311 7.24803C16.5391 7.61603 16.8191 7.90403 17.1711 8.11203C17.5311 8.31203 17.9351 8.41203 18.3831 8.41203ZM26.8145 9.10803V7.71603L26.7785 7.48803V5.16003C26.7785 4.62403 26.6265 4.21203 26.3225 3.92403C26.0265 3.63603 25.5825 3.49203 24.9905 3.49203C24.5825 3.49203 24.1945 3.56003 23.8265 3.69603C23.4585 3.83203 23.1465 4.01203 22.8905 4.23603L22.5065 3.60003C22.8265 3.32803 23.2105 3.12003 23.6585 2.97603C24.1065 2.82403 24.5785 2.74803 25.0745 2.74803C25.8905 2.74803 26.5185 2.95203 26.9585 3.36003C27.4065 3.76003 27.6305 4.37203 27.6305 5.19603V9.10803H26.8145ZM24.6425 9.16803C24.1705 9.16803 23.7585 9.09203 23.4065 8.94003C23.0625 8.78003 22.7985 8.56403 22.6145 8.29203C22.4305 8.01203 22.3385 7.69203 22.3385 7.33203C22.3385 7.00403 22.4145 6.70803 22.5665 6.44403C22.7265 6.17203 22.9825 5.95603 23.3345 5.79603C23.6945 5.62803 24.1745 5.54403 24.7745 5.54403H26.9465V6.18003H24.7985C24.1905 6.18003 23.7665 6.28803 23.5265 6.50403C23.2945 6.72003 23.1785 6.98803 23.1785 7.30803C23.1785 7.66803 23.3185 7.95603 23.5985 8.17203C23.8785 8.38803 24.2705 8.49603 24.7745 8.49603C25.2545 8.49603 25.6665 8.38803 26.0105 8.17203C26.3625 7.94803 26.6185 7.62803 26.7785 7.21203L26.9705 7.80003C26.8105 8.21603 26.5305 8.54803 26.1305 8.79603C25.7385 9.04403 25.2425 9.16803 24.6425 9.16803ZM32.2506 9.18003C31.7386 9.18003 31.2826 9.09603 30.8826 8.92803C30.4906 8.76003 30.1546 8.50403 29.8746 8.16003C29.5946 7.81603 29.3826 7.39203 29.2386 6.88803C29.0946 6.37603 29.0226 5.78403 29.0226 5.11203C29.0226 4.51203 29.0786 3.98803 29.1906 3.54003C29.3026 3.08403 29.4586 2.69203 29.6586 2.36403C29.8586 2.03603 30.0906 1.76003 30.3546 1.53603C30.6266 1.30403 30.9186 1.12003 31.2306 0.984032C31.5506 0.840032 31.8786 0.732032 32.2146 0.660032L35.0466 3.14713e-05L35.1906 0.792032L32.5266 1.39203C32.3586 1.43203 32.1546 1.48803 31.9146 1.56003C31.6826 1.63203 31.4426 1.74003 31.1946 1.88403C30.9546 2.02803 30.7306 2.22803 30.5226 2.48403C30.3146 2.74003 30.1466 3.07203 30.0186 3.48003C29.8986 3.88003 29.8386 4.38003 29.8386 4.98003C29.8386 5.10803 29.8426 5.21203 29.8506 5.29203C29.8586 5.36403 29.8666 5.44403 29.8746 5.53203C29.8906 5.61203 29.9026 5.73203 29.9106 5.89203L29.5386 5.58003C29.6266 5.09203 29.8066 4.66803 30.0786 4.30803C30.3506 3.94003 30.6906 3.65603 31.0986 3.45603C31.5146 3.24803 31.9746 3.14403 32.4786 3.14403C33.0626 3.14403 33.5826 3.27203 34.0386 3.52803C34.4946 3.77603 34.8506 4.12403 35.1066 4.57203C35.3706 5.02003 35.5026 5.54003 35.5026 6.13203C35.5026 6.71603 35.3666 7.24003 35.0946 7.70403C34.8306 8.16803 34.4546 8.53203 33.9666 8.79603C33.4786 9.05203 32.9066 9.18003 32.2506 9.18003ZM32.3466 8.47203C32.7946 8.47203 33.1906 8.37203 33.5346 8.17203C33.8786 7.96403 34.1466 7.68403 34.3386 7.33203C34.5386 6.98003 34.6386 6.58403 34.6386 6.14403C34.6386 5.71203 34.5386 5.32803 34.3386 4.99203C34.1466 4.65603 33.8786 4.39203 33.5346 4.20003C33.1906 4.00003 32.7906 3.90003 32.3346 3.90003C31.8866 3.90003 31.4906 3.99603 31.1466 4.18803C30.8026 4.37203 30.5306 4.63203 30.3306 4.96803C30.1386 5.30403 30.0426 5.69203 30.0426 6.13203C30.0426 6.57203 30.1386 6.96803 30.3306 7.32003C30.5306 7.67203 30.8026 7.95203 31.1466 8.16003C31.4986 8.36803 31.8986 8.47203 32.3466 8.47203ZM39.4407 9.16803C38.8327 9.16803 38.2847 9.03203 37.7967 8.76003C37.3167 8.48003 36.9367 8.10003 36.6567 7.62003C36.3767 7.13203 36.2367 6.57603 36.2367 5.95203C36.2367 5.32003 36.3767 4.76403 36.6567 4.28403C36.9367 3.80403 37.3167 3.42803 37.7967 3.15603C38.2767 2.88403 38.8247 2.74803 39.4407 2.74803C40.0647 2.74803 40.6167 2.88403 41.0967 3.15603C41.5847 3.42803 41.9647 3.80403 42.2367 4.28403C42.5167 4.76403 42.6567 5.32003 42.6567 5.95203C42.6567 6.57603 42.5167 7.13203 42.2367 7.62003C41.9647 8.10003 41.5847 8.48003 41.0967 8.76003C40.6087 9.03203 40.0567 9.16803 39.4407 9.16803ZM39.4407 8.41203C39.8967 8.41203 40.3007 8.31203 40.6527 8.11203C41.0047 7.90403 41.2807 7.61603 41.4807 7.24803C41.6887 6.87203 41.7927 6.44003 41.7927 5.95203C41.7927 5.45603 41.6887 5.02403 41.4807 4.65603C41.2807 4.28803 41.0047 4.00403 40.6527 3.80403C40.3007 3.59603 39.9007 3.49203 39.4527 3.49203C39.0047 3.49203 38.6047 3.59603 38.2527 3.80403C37.9007 4.00403 37.6207 4.28803 37.4127 4.65603C37.2047 5.02403 37.1007 5.45603 37.1007 5.95203C37.1007 6.44003 37.2047 6.87203 37.4127 7.24803C37.6207 7.61603 37.9007 7.90403 38.2527 8.11203C38.6047 8.31203 39.0007 8.41203 39.4407 8.41203ZM44.9632 9.10803V3.32403L45.1792 3.55203H42.5752V2.80803H48.2032V3.55203H45.5992L45.8152 3.32403V9.10803H44.9632ZM53.5751 9.10803L50.9831 5.98803L51.6911 5.56803L54.5831 9.10803H53.5751ZM48.9551 9.10803V2.80803H49.8071V9.10803H48.9551ZM49.5431 6.30003V5.56803H51.5711V6.30003H49.5431ZM51.7631 6.04803L50.9711 5.92803L53.4791 2.80803H54.4031L51.7631 6.04803ZM55.3214 11.496C55.0254 11.496 54.7414 11.448 54.4694 11.352C54.2054 11.256 53.9774 11.112 53.7854 10.92L54.1814 10.284C54.3414 10.436 54.5134 10.552 54.6974 10.632C54.8894 10.72 55.1014 10.764 55.3334 10.764C55.6134 10.764 55.8534 10.684 56.0534 10.524C56.2614 10.372 56.4574 10.1 56.6414 9.70803L57.0494 8.78403L57.1454 8.65203L59.7374 2.80803H60.5774L57.4214 9.86403C57.2454 10.272 57.0494 10.596 56.8334 10.836C56.6254 11.076 56.3974 11.244 56.1494 11.34C55.9014 11.444 55.6254 11.496 55.3214 11.496ZM57.0014 9.28803L54.0974 2.80803H54.9854L57.5534 8.59203L57.0014 9.28803ZM65.7774 9.18003C65.3214 9.18003 64.8694 9.11603 64.4214 8.98803C63.9734 8.86003 63.5774 8.66403 63.2334 8.40003L63.5094 7.76403C63.8134 7.98803 64.1654 8.16003 64.5654 8.28003C64.9654 8.39203 65.3614 8.44803 65.7534 8.44803C66.1454 8.44003 66.4854 8.38403 66.7734 8.28003C67.0614 8.17603 67.2854 8.03203 67.4454 7.84803C67.6054 7.66403 67.6854 7.45603 67.6854 7.22403C67.6854 6.88803 67.5334 6.62803 67.2294 6.44403C66.9254 6.25203 66.5094 6.15603 65.9814 6.15603H64.7214V5.53203H65.9214C66.2334 5.53203 66.5094 5.49203 66.7494 5.41203C66.9894 5.33203 67.1734 5.21603 67.3014 5.06403C67.4374 4.91203 67.5054 4.73203 67.5054 4.52403C67.5054 4.30003 67.4254 4.10803 67.2654 3.94803C67.1134 3.78803 66.9014 3.66803 66.6294 3.58803C66.3574 3.50803 66.0494 3.46803 65.7054 3.46803C65.3934 3.47603 65.0694 3.52403 64.7334 3.61203C64.3974 3.69203 64.0654 3.81603 63.7374 3.98403L63.4974 3.32403C63.8654 3.13203 64.2294 2.98803 64.5894 2.89203C64.9574 2.78803 65.3254 2.73603 65.6934 2.73603C66.1974 2.72003 66.6494 2.78003 67.0494 2.91603C67.4574 3.05203 67.7814 3.24803 68.0214 3.50403C68.2614 3.75203 68.3814 4.05203 68.3814 4.40403C68.3814 4.71603 68.2854 4.98803 68.0934 5.22003C67.9014 5.45203 67.6454 5.63203 67.3254 5.76003C67.0054 5.88803 66.6414 5.95203 66.2334 5.95203L66.2694 5.72403C66.9894 5.72403 67.5494 5.86403 67.9494 6.14403C68.3574 6.42403 68.5614 6.80403 68.5614 7.28403C68.5614 7.66003 68.4374 7.99203 68.1894 8.28003C67.9414 8.56003 67.6054 8.78003 67.1814 8.94003C66.7654 9.10003 66.2974 9.18003 65.7774 9.18003ZM73.9276 9.10803V7.71603L73.8916 7.48803V5.16003C73.8916 4.62403 73.7396 4.21203 73.4356 3.92403C73.1396 3.63603 72.6956 3.49203 72.1036 3.49203C71.6956 3.49203 71.3076 3.56003 70.9396 3.69603C70.5716 3.83203 70.2596 4.01203 70.0036 4.23603L69.6196 3.60003C69.9396 3.32803 70.3236 3.12003 70.7716 2.97603C71.2196 2.82403 71.6916 2.74803 72.1876 2.74803C73.0036 2.74803 73.6316 2.95203 74.0716 3.36003C74.5196 3.76003 74.7436 4.37203 74.7436 5.19603V9.10803H73.9276ZM71.7556 9.16803C71.2836 9.16803 70.8716 9.09203 70.5196 8.94003C70.1756 8.78003 69.9116 8.56403 69.7276 8.29203C69.5436 8.01203 69.4516 7.69203 69.4516 7.33203C69.4516 7.00403 69.5276 6.70803 69.6796 6.44403C69.8396 6.17203 70.0956 5.95603 70.4476 5.79603C70.8076 5.62803 71.2876 5.54403 71.8876 5.54403H74.0596V6.18003H71.9116C71.3036 6.18003 70.8796 6.28803 70.6396 6.50403C70.4076 6.72003 70.2916 6.98803 70.2916 7.30803C70.2916 7.66803 70.4316 7.95603 70.7116 8.17203C70.9916 8.38803 71.3836 8.49603 71.8876 8.49603C72.3676 8.49603 72.7796 8.38803 73.1236 8.17203C73.4756 7.94803 73.7316 7.62803 73.8916 7.21203L74.0836 7.80003C73.9236 8.21603 73.6436 8.54803 73.2436 8.79603C72.8516 9.04403 72.3556 9.16803 71.7556 9.16803ZM80.5997 9.10803V6.84003L80.7557 7.02003H78.6197C77.8117 7.02003 77.1797 6.84403 76.7237 6.49203C76.2677 6.14003 76.0397 5.62803 76.0397 4.95603C76.0397 4.23603 76.2837 3.70003 76.7717 3.34803C77.2597 2.98803 77.9117 2.80803 78.7277 2.80803H81.3797V9.10803H80.5997ZM75.9917 9.10803L77.7197 6.68403H78.6077L76.9157 9.10803H75.9917ZM80.5997 6.58803V3.30003L80.7557 3.55203H78.7517C78.1677 3.55203 77.7117 3.66403 77.3837 3.88803C77.0637 4.11203 76.9037 4.47603 76.9037 4.98003C76.9037 5.91603 77.4997 6.38403 78.6917 6.38403H80.7557L80.5997 6.58803ZM83.329 9.10803V2.80803H86.113C86.825 2.80803 87.385 2.94403 87.793 3.21603C88.209 3.48803 88.417 3.88803 88.417 4.41603C88.417 4.92803 88.221 5.32403 87.829 5.60403C87.437 5.87603 86.921 6.01203 86.281 6.01203L86.449 5.76003C87.201 5.76003 87.753 5.90003 88.105 6.18003C88.457 6.46003 88.633 6.86403 88.633 7.39203C88.633 7.93603 88.433 8.36003 88.033 8.66403C87.641 8.96003 87.029 9.10803 86.197 9.10803H83.329ZM84.157 8.43603H86.161C86.697 8.43603 87.101 8.35203 87.373 8.18403C87.653 8.00803 87.793 7.72803 87.793 7.34403C87.793 6.96003 87.669 6.68003 87.421 6.50403C87.173 6.32803 86.781 6.24003 86.245 6.24003H84.157V8.43603ZM84.157 5.60403H86.053C86.541 5.60403 86.913 5.51203 87.169 5.32803C87.433 5.14403 87.565 4.87603 87.565 4.52403C87.565 4.17203 87.433 3.90803 87.169 3.73203C86.913 3.55603 86.541 3.46803 86.053 3.46803H84.157V5.60403ZM92.7418 9.16803C92.1338 9.16803 91.5858 9.03203 91.0978 8.76003C90.6178 8.48003 90.2378 8.10003 89.9578 7.62003C89.6778 7.13203 89.5378 6.57603 89.5378 5.95203C89.5378 5.32003 89.6778 4.76403 89.9578 4.28403C90.2378 3.80403 90.6178 3.42803 91.0978 3.15603C91.5778 2.88403 92.1258 2.74803 92.7418 2.74803C93.3658 2.74803 93.9178 2.88403 94.3978 3.15603C94.8858 3.42803 95.2658 3.80403 95.5378 4.28403C95.8178 4.76403 95.9578 5.32003 95.9578 5.95203C95.9578 6.57603 95.8178 7.13203 95.5378 7.62003C95.2658 8.10003 94.8858 8.48003 94.3978 8.76003C93.9098 9.03203 93.3578 9.16803 92.7418 9.16803ZM92.7418 8.41203C93.1978 8.41203 93.6018 8.31203 93.9538 8.11203C94.3058 7.90403 94.5818 7.61603 94.7818 7.24803C94.9898 6.87203 95.0938 6.44003 95.0938 5.95203C95.0938 5.45603 94.9898 5.02403 94.7818 4.65603C94.5818 4.28803 94.3058 4.00403 93.9538 3.80403C93.6018 3.59603 93.2018 3.49203 92.7538 3.49203C92.3058 3.49203 91.9058 3.59603 91.5538 3.80403C91.2018 4.00403 90.9218 4.28803 90.7138 4.65603C90.5058 5.02403 90.4018 5.45603 90.4018 5.95203C90.4018 6.44003 90.5058 6.87203 90.7138 7.24803C90.9218 7.61603 91.2018 7.90403 91.5538 8.11203C91.9058 8.31203 92.3018 8.41203 92.7418 8.41203ZM101.919 9.10803L99.3267 5.98803L100.035 5.56803L102.927 9.10803H101.919ZM97.2987 9.10803V2.80803H98.1507V9.10803H97.2987ZM97.8867 6.30003V5.56803H99.9147V6.30003H97.8867ZM100.107 6.04803L99.3147 5.92803L101.823 2.80803H102.747L100.107 6.04803Z" fill="#02043D"/>
</svg>
